<?xml version="1.0" standalone="no"?>
<!DOCTYPE svg PUBLIC "-//W3C//DTD SVG 20010904//EN"
 "http://www.w3.org/TR/2001/REC-SVG-20010904/DTD/svg10.dtd">
<svg version="1.0" xmlns="http://www.w3.org/2000/svg"
 width="749.000000pt" height="749.000000pt" viewBox="0 0 749.000000 749.000000"
 preserveAspectRatio="xMidYMid meet">
<metadata>
Created by potrace 1.16, written by Peter Selinger 2001-2019
</metadata>
<g transform="translate(0.000000,749.000000) scale(0.100000,-0.100000)"
fill="#000000" stroke="none">
<path d="M0 3745 l0 -3745 3745 0 3745 0 0 3745 0 3745 -3745 0 -3745 0 0
-3745z m2323 482 c-2 -61 -3 -116 -3 -122 0 -5 -11 4 -24 20 l-24 30 -346 3
-346 3 0 37 c0 41 -23 82 -46 82 -8 0 -14 5 -14 10 0 6 130 10 371 10 l371 0
27 29 c14 16 29 25 32 20 3 -5 4 -60 2 -122z m1421 78 c255 -54 415 -262 416
-540 0 -157 -54 -291 -159 -395 -111 -108 -214 -150 -373 -150 -379 0 -621
370 -488 749 59 165 216 301 388 336 89 17 133 18 216 0z m1796 -14 c0 -5 -7
-11 -15 -15 -8 -3 -15 -11 -15 -19 0 -11 186 -448 382 -895 30 -68 47 -96 64
-103 55 -20 21 -29 -111 -29 -113 0 -135 2 -135 15 0 8 3 14 8 14 42 -7 42 27
1 118 -94 209 -271 630 -289 688 -19 60 -25 60 -44 -1 -10 -32 -83 -210 -163
-398 -80 -188 -149 -351 -154 -364 -7 -17 -4 -26 11 -39 11 -10 20 -21 20 -25
0 -12 -248 -10 -255 2 -3 5 5 12 18 15 21 6 52 71 236 502 117 272 210 501
207 509 -3 8 -12 14 -21 14 -8 0 -15 5 -15 10 0 6 52 10 135 10 74 0 135 -4
135 -9z m-3275 -536 c0 -117 -10 -149 -30 -103 -10 23 -13 23 -258 28 l-247 5
2 -205 3 -205 28 -13 c52 -25 28 -32 -108 -32 -132 0 -166 9 -111 29 13 5 26
17 30 26 3 9 6 135 6 281 l0 264 323 2 322 3 10 23 c20 46 30 14 30 -103z
m478 75 c38 -42 37 -92 -2 -131 -44 -44 -102 -43 -143 2 -41 43 -38 91 7 136
32 32 40 35 73 30 24 -4 47 -17 65 -37z m1903 21 c89 -54 53 -181 -52 -181
-101 0 -130 138 -39 188 29 16 56 14 91 -7z"/>
<path d="M3521 4154 c-99 -36 -171 -101 -222 -202 -29 -56 -34 -76 -37 -159
-3 -69 0 -112 12 -156 48 -174 206 -287 381 -274 330 25 473 446 238 698 -67
72 -136 102 -242 106 -61 2 -99 -2 -130 -13z"/>
</g>
</svg>
